<svg version="1.1" xmlns="http://www.w3.org/2000/svg" xmlns:xlink="http://www.w3.org/1999/xlink" x="0px" y="0px"
	 width="1380.99px" height="828.33px" viewBox="0 0 1380.99 828.33"
	 style="overflow:visible;enable-background:new 0 0 1380.99 828.33;" xml:space="preserve">
<style type="text/css">
	.st0{fill:#26A9E0;}
	.st1{fill:#279FC9;}
	.st2{fill:#2F3C4F;}
	.st3{fill:#363656;}
	.st4{fill:#35485E;}
	.st5{fill:#3EBAE5;}
	.st6{fill:#FFFFFF;}
	.st7{fill:#009969;}
	.st8{fill:#DBE4E4;}
	.st9{fill:#A9B6B6;}
	.st10{fill:#EBD265;}
	.st11{fill:#4CB86C;}
	.st12{fill:#DCF1FF;}
	.st13{fill:#F6921E;}
	.st14{fill:#FAAF40;}
	.st15{opacity:0.65;fill:#E3F2FF;}
	.st16{fill:#0B7A55;}
	.st17{fill:#BAD0E6;}
	.st18{fill:#3C5CB3;}
	.st19{fill:#3965B8;}
	.st20{fill:#ABCFFF;}
	.st21{fill:#2C4482;}
	.st22{fill:#FFC2B0;}
	.st23{opacity:0.46;fill:#FFFFFF;}
	.st24{fill:#513554;}
	.st25{fill:#FCFEFF;}
	.st26{fill:#DCEFFF;}
	.st27{fill:#E5F2FF;}
	.st28{fill:none;stroke:#29479C;stroke-width:3.1356;stroke-linecap:round;stroke-linejoin:round;stroke-miterlimit:10;}
	.st29{fill:#D18437;}
	.st30{fill:#E5AC63;}
	.st31{fill:none;stroke:#DEA749;stroke-width:1.1457;stroke-miterlimit:10;}
	.st32{fill:#C99334;}
</style>
<defs>
</defs>
<rect class="st0" width="1380.99" height="828.33"/>
<g>
	<g>
		<path class="st1" d="M499.84,564.25l-125.7-72.57c-1.38-0.8-3.8-0.7-5.4,0.22l-12.51,7.22c-0.09,0.04-0.18,0.08-0.26,0.13
			l-126.41,72.98c-1.6,0.92-1.77,2.32-0.39,3.12l125.7,72.57c1.38,0.8,3.8,0.7,5.4-0.22l12.51-7.22c0.09-0.04,0.18-0.08,0.26-0.13
			l126.41-72.98C501.05,566.45,501.23,565.05,499.84,564.25z"/>
		<g>
			<rect x="200.81" y="544.9" class="st2" width="20.46" height="12.61"/>
			<rect x="440.12" y="543.7" class="st3" width="20.46" height="12.61"/>
			<path class="st4" d="M456.76,504.61l0.01-0.03l-107.42-62.02c-2.6-1.5-5.92-0.21-6.82,2.65l-8.86,28.07l18.59,8.97l-0.01,0.03
				l108.09,74.61l13.4-38.24c0.66-2.1-0.22-4.37-2.13-5.47L456.76,504.61z"/>
			<path class="st4" d="M327.45,631.09l-125.7-72.57c-1.38-0.8-1.21-2.2,0.39-3.12l126.41-72.98c1.6-0.92,4.02-1.02,5.4-0.22
				l125.7,72.57c1.38,0.8,1.21,2.2-0.39,3.12l-126.41,72.98C331.25,631.79,328.83,631.89,327.45,631.09z"/>
			<path class="st5" d="M467.4,510.73l-14.85-8.57l0.01-0.03l-107.42-62.02c-2.6-1.5-5.92-0.21-6.82,2.65l-8.67,27.44
				c-0.4,0.12-0.78,0.27-1.12,0.47l-126.41,72.98c-1.6,0.92-1.77,2.32-0.39,3.12l125.7,72.57c1.38,0.8,3.8,0.7,5.4-0.22
				l126.41-72.98c0.69-0.4,1.1-0.89,1.25-1.38l0.02,0.01l9.01-28.57C470.19,514.11,469.3,511.83,467.4,510.73z"/>
			<path class="st6" d="M328.38,500.31l-15.85-9.15c-1.15-0.66-1-1.82,0.32-2.58l13.22-7.63c1.32-0.76,3.33-0.85,4.47-0.19
				l15.85,9.15c1.15,0.66,1,1.82-0.32,2.58l-13.22,7.63C331.53,500.89,329.52,500.97,328.38,500.31z"/>
			<path class="st6" d="M360.64,518.94l-15.85-9.15c-1.15-0.66-1-1.82,0.32-2.58l13.22-7.63c1.32-0.76,3.33-0.85,4.47-0.19
				l15.85,9.15c1.15,0.66,1,1.82-0.32,2.58l-13.22,7.63C363.79,519.51,361.79,519.6,360.64,518.94z"/>
			<path class="st6" d="M392.91,537.56l-15.85-9.15c-1.15-0.66-1-1.82,0.32-2.58l13.22-7.63c1.32-0.76,3.33-0.85,4.47-0.19
				l15.85,9.15c1.15,0.66,1,1.82-0.32,2.58l-13.22,7.63C396.06,538.14,394.05,538.23,392.91,537.56z"/>
			<path class="st6" d="M425.17,556.19l-15.85-9.15c-1.15-0.66-1-1.82,0.32-2.58l13.22-7.63c1.32-0.76,3.33-0.85,4.47-0.19
				l15.85,9.15c1.15,0.66,1,1.82-0.32,2.58l-13.22,7.63C428.32,556.77,426.32,556.85,425.17,556.19z"/>
			<path class="st6" d="M298.22,517.72l-15.85-9.15c-1.15-0.66-1-1.82,0.32-2.58l13.22-7.63c1.32-0.76,3.33-0.85,4.47-0.19
				l15.85,9.15c1.15,0.66,1,1.82-0.32,2.58l-13.22,7.63C301.37,518.3,299.36,518.38,298.22,517.72z"/>
			<path class="st6" d="M330.48,536.35l-15.85-9.15c-1.15-0.66-1-1.82,0.32-2.58l13.22-7.63c1.32-0.76,3.33-0.85,4.47-0.19
				l15.85,9.15c1.15,0.66,1,1.82-0.32,2.58l-13.22,7.63C333.63,536.93,331.63,537.01,330.48,536.35z"/>
			<path class="st6" d="M362.75,554.98l-15.85-9.15c-1.15-0.66-1-1.82,0.32-2.58l13.22-7.63c1.32-0.76,3.33-0.85,4.47-0.19
				l15.85,9.15c1.15,0.66,1,1.82-0.32,2.58l-13.22,7.63C365.9,555.56,363.89,555.64,362.75,554.98z"/>
			<path class="st6" d="M395.01,573.6l-15.85-9.15c-1.15-0.66-1-1.82,0.32-2.58l13.22-7.63c1.32-0.76,3.33-0.85,4.47-0.19
				l15.85,9.15c1.15,0.66,1,1.82-0.32,2.58l-13.22,7.63C398.16,574.18,396.16,574.27,395.01,573.6z"/>
			<path class="st6" d="M268.06,535.13l-15.85-9.15c-1.15-0.66-1-1.82,0.32-2.58l13.22-7.63c1.32-0.76,3.33-0.85,4.47-0.19
				l15.85,9.15c1.15,0.66,1,1.82-0.32,2.58l-13.22,7.63C271.2,535.71,269.2,535.8,268.06,535.13z"/>
			<path class="st6" d="M300.32,553.76l-15.85-9.15c-1.15-0.66-1-1.82,0.32-2.58l13.22-7.63c1.32-0.76,3.33-0.85,4.47-0.19
				l15.85,9.15c1.15,0.66,1,1.82-0.32,2.58l-13.22,7.63C303.47,554.34,301.47,554.42,300.32,553.76z"/>
			<path class="st6" d="M332.59,572.39l-15.85-9.15c-1.15-0.66-1-1.82,0.32-2.58l13.22-7.63c1.32-0.76,3.33-0.85,4.47-0.19
				l15.85,9.15c1.15,0.66,1,1.82-0.32,2.58l-13.22,7.63C335.74,572.97,333.73,573.05,332.59,572.39z"/>
			<path class="st7" d="M364.85,591.02L349,581.87c-1.15-0.66-1-1.82,0.32-2.58l13.22-7.63c1.32-0.76,3.33-0.85,4.47-0.19
				l15.85,9.15c1.15,0.66,1,1.82-0.32,2.58l-13.22,7.63C368,591.6,366,591.68,364.85,591.02z"/>
			<path class="st6" d="M237.89,552.55l-15.85-9.15c-1.15-0.66-1-1.82,0.32-2.58l13.22-7.63c1.32-0.76,3.33-0.85,4.47-0.19
				l15.85,9.15c1.15,0.66,1,1.82-0.32,2.58l-13.22,7.63C241.04,553.13,239.04,553.21,237.89,552.55z"/>
			<path class="st6" d="M270.16,571.18l-15.85-9.15c-1.15-0.66-1-1.82,0.32-2.58l13.22-7.63c1.32-0.76,3.33-0.85,4.47-0.19
				l15.85,9.15c1.15,0.66,1,1.82-0.32,2.58l-13.22,7.63C273.31,571.75,271.31,571.84,270.16,571.18z"/>
			<path class="st6" d="M302.43,589.8l-15.85-9.15c-1.15-0.66-1-1.82,0.32-2.58l13.22-7.63c1.32-0.76,3.33-0.85,4.47-0.19
				l15.85,9.15c1.15,0.66,1,1.82-0.32,2.58l-13.22,7.63C305.57,590.38,303.57,590.47,302.43,589.8z"/>
			<path class="st7" d="M333.76,607.89l-13.99-8.08c-1.66-0.96-1.45-2.63,0.47-3.74l30.89-17.84c1.92-1.11,4.82-1.23,6.48-0.27
				l13.99,8.08c1.66,0.96,1.45,2.63-0.47,3.74l-30.89,17.84C338.32,608.73,335.42,608.85,333.76,607.89z"/>
			<path class="st6" d="M457.22,512.37l-9.43-5.44l0.01-0.02l-74.3-42.9l-0.02,0.06l-27.77-16.03c-1.11-0.64-2.54-0.09-2.92,1.14
				l-5.46,17.32c-0.28,0.9,0.1,1.87,0.91,2.35l10.56,6.1l-0.01,0.02l74.3,42.9l0.02-0.06l26.01,15.02c2.02,1.16,4.6,0.16,5.3-2.06
				l4.45-14.13C459.39,514.99,458.7,513.23,457.22,512.37z"/>
		</g>
	</g>
	<path class="st1" d="M791.67,684.22L397.31,456.54c-6.5-3.75-6.5-13.13,0-16.88l308.01-177.83c3.02-1.74,6.73-1.74,9.75,0
		l412.4,238.1c6.5,3.75,6.5,13.13,0,16.88L837.5,684.22C823.32,692.41,805.85,692.41,791.67,684.22z"/>
	<path class="st4" d="M1104.73,438.23v10.05l-396-228.63c-3.02-1.74-6.73-1.74-9.75,0L407.38,388.01v-9.22H386.1v28.18h0.07
		c0.31,2.91,1.91,5.71,4.81,7.38l386.49,225.99c19.06,10.94,42.5,10.95,61.57,0.03l282.09-165.75c3.17-1.83,4.79-5.01,4.86-8.22
		h0.01v-28.18H1104.73z"/>
	<path class="st8" d="M785.33,616.02L390.98,388.34c-6.5-3.75-6.5-13.13,0-16.88l308.01-177.83c3.02-1.74,6.73-1.74,9.75,0
		l412.4,238.1c6.5,3.75,6.5,13.13,0,16.88L831.16,616.02C816.98,624.21,799.51,624.21,785.33,616.02z"/>
	<polygon class="st9" points="1042.82,455.48 644.14,225.3 699.83,191.95 1102.54,421 	"/>
	<polygon class="st4" points="1036.14,426.58 605.93,178.2 666.05,143.48 1096.27,391.87 	"/>
	<path class="st10" d="M710.62,200.62c-5.96,3.44-15.62,3.44-21.58,0c-5.96-3.44-5.96-9.02,0-12.46c5.96-3.44,15.62-3.44,21.58,0
		S716.58,197.18,710.62,200.62z"/>
	<ellipse class="st11" cx="739.09" cy="219.57" rx="15.26" ry="8.81"/>
	<path class="st12" d="M671.34,178.22c-5.96,3.44-15.62,3.44-21.58,0s-5.96-9.02,0-12.46c5.96-3.44,15.62-3.44,21.58,0
		C677.3,169.2,677.3,174.78,671.34,178.22z"/>
	<g>
		<g>
			<g>
				<path class="st6" d="M992.19,380.76c-9.64-5.57-9.64-14.63,0-20.19c9.64-5.57,25.33-5.57,34.98,0c9.64,5.57,9.64,14.63,0,20.19
					S1001.84,386.32,992.19,380.76z M1022.75,363.11c-7.21-4.16-18.93-4.16-26.14,0c-7.21,4.16-7.21,10.93,0,15.09
					c7.21,4.16,18.93,4.16,26.14,0C1029.96,374.04,1029.96,367.27,1022.75,363.11z"/>
			</g>
		</g>
		<path class="st6" d="M1022.25,400.12L1022.25,400.12c-1.96,0.7-4.14-0.33-4.84-2.28l-4.38-12.22c-0.7-1.96,0.33-4.14,2.28-4.84
			l0,0c1.96-0.7,4.14,0.33,4.84,2.28l4.38,12.22C1025.24,397.24,1024.21,399.42,1022.25,400.12z"/>
	</g>
	<g>
		<polygon class="st0" points="863,232.5 868.65,113.91 899.11,95.76 868.65,113.91 894.95,160.38 892.62,216.1 863,232.5 
			1076.8,351.43 1104.42,334.85 885.38,205.76 		"/>
		<polygon class="st13" points="822.58,49.65 822.58,57.42 751.66,97.89 751.46,89.82 		"/>
		<polyline class="st14" points="863,232.18 892.62,215.79 894.95,160.06 868.65,113.6 899.11,95.44 997.56,275.93 969.94,292.52 
			868.65,113.6 863,232.18 		"/>
		<polyline class="st14" points="788.32,100.04 762.01,53.57 797.33,44.32 890.92,215.91 863.31,232.5 762.01,53.57 		"/>
		<polyline class="st14" points="969.86,291.09 999.49,274.7 1001.81,218.98 975.51,172.51 1005.97,154.36 1104.42,334.85 
			1076.8,351.43 975.51,172.51 969.86,291.09 		"/>
		<polyline class="st13" points="969.86,291.09 999.49,274.7 1001.81,218.98 975.51,172.51 1005.97,154.36 975.51,172.51 
			969.86,291.09 		"/>
		<polyline class="st13" points="863,232.5 892.62,216.1 894.95,160.38 868.65,113.91 899.11,95.76 868.65,113.91 863,232.5 		"/>
		<polygon class="st14" points="822.58,49.65 754.86,12.5 751.5,91.09 		"/>
	</g>
	<g>
		<path class="st1" d="M521.26,253.28c-1.34-0.37-2.69-0.72-4.03-1.06c8.02-18.18-17.17-34.25-26.01-39.2
			c-1.9-1.07-4.1-1.41-6.24-1.01c-8.5,1.61-32.14,7.07-55.44,21.33c-13.01,5.08-31.32,13.23-48.08,24.29
			c-0.75,0.49-1.47,0.99-2.2,1.48c-2.92,0.94-5.83,1.92-8.73,2.96c-20.96,7.51-36.26,16.52-45.75,23.07
			c-5.91,3.66-10.34,7.09-13.54,9.92c-4.3,3.8-4.14,10.55,0.33,14.15c5.74,4.62,14.61,10.63,25.77,14.74
			c0.41,7.58,2.47,15.29,6.18,23.07c2.89,5.62,9.78,7.68,15.32,7.24c3.39-0.27,5.37-1.18,7.09-3.15c1.26-1.45,1.73-2.64,1.03-4.88
			c-0.06-0.17-5.04-8.83-6.22-18.39c8.86-0.23,22.33-1.39,32.35-5.87c50.54-22.57,14.51-53.16,14.51-53.16l1.19-0.59l3.68-1.82
			l1.19-0.59c0,0,37.29,33.16,88.12,1.88c0.56-0.35,1.11-0.69,1.64-1.04c6.74,1.21,10.92,2.12,11.08,2.16
			c7.62,1.64,13.48-0.19,15.78-2.98c0.19-0.23,0.36-0.47,0.5-0.72C532.5,262.11,529.75,255.77,521.26,253.28z M506.5,248.16
			c0.17-1.05,0.29-2.11,0.38-3.18C506.89,246.03,506.77,247.09,506.5,248.16z"/>
		<g>
			<path class="st2" d="M330.6,337.51c-4.36-19.04-5.58-39.25,2.3-52.48c7.79-13.07,20-26.23,38.04-38.12
				c30.64-20.2,66.36-30.89,66.72-31l2.44,2.42c-0.4,0.2-39.27,21.65-74.95,54.67c-34.92,32.31-15.81,65.7-13.56,70.06
				c2.45,4.74-2.7,9.03-6.15,9.3C339.82,352.81,333.18,348.76,330.6,337.51z"/>
			<path class="st2" d="M359.83,251.43c22.56-8.09,45.65-13.11,68.63-14.94c28.84-2.3,56.84-1.76,84.68,6
				c8.63,2.54,11.43,8.98,9.66,12.04c-0.14,0.25-0.31,0.49-0.51,0.73c-2.35,2.84-8.3,4.7-16.05,3.03
				c-0.65-0.14-65.01-14.21-103.2-5.86c-61.86,13.53-101.79,32.55-102.19,32.74l0.71-1.17
				C301.79,283.81,321.53,265.16,359.83,251.43z"/>
			<path class="st15" d="M308.1,290.24c0,0,4.78,21.59,28.36,22.82s55.13-3.03,61.6-18.13c6.47-15.1,3.31-36.28-8.59-41.17
				C377.58,248.88,321.26,264.66,308.1,290.24z"/>
			<path class="st15" d="M405.43,242.28c0,0,4.78,21.59,28.36,22.82c23.58,1.23,55.13-3.03,61.6-18.13
				c6.47-15.1,3.31-36.28-8.59-41.17C474.9,200.92,418.58,216.69,405.43,242.28z"/>
			<path class="st4" d="M299.53,284.98c-4.37,3.86-4.21,10.73,0.33,14.39c13.72,11.04,44.94,29.94,82.91,12.98
				c51.4-22.96,14.76-54.07,14.76-54.07l1.21-0.6l3.74-1.85l1.21-0.6c0,0,37.92,33.72,89.62,1.92
				c39.44-24.26,0.77-49.16-10.72-55.61c-1.93-1.08-4.17-1.44-6.35-1.03c-12.65,2.39-58.28,13.17-87.55,48.11l-0.31,0.15
				C336.65,257.94,310.73,275.09,299.53,284.98z M418.87,251.6L418.87,251.6c-5.51-3.31-6.14-11.02-1.29-15.25
				c20.61-17.93,46.47-24.41,55.83-26.26c2.36-0.47,4.79-0.01,6.83,1.27c9.28,5.82,33.46,23.94,4.45,39.79
				C449.58,270.32,418.87,251.6,418.87,251.6z M318.28,300.01c-6.01-3.27-6.61-11.63-1.17-15.79c9.63-7.37,27.69-17.61,58.6-23.83
				c2.62-0.53,5.35,0.08,7.5,1.67l5.8,4.3c0,0,27.68,20.22-10.56,37.3C353.4,314.84,330.86,306.86,318.28,300.01z"/>
			<path class="st6" d="M332.59,301.37L332.59,301.37c-1.56-0.08-2.77-1.43-2.69-2.99l0.89-17.03c0.08-1.56,1.43-2.77,2.99-2.69l0,0
				c1.56,0.08,2.77,1.43,2.69,2.99l-0.89,17.03C335.49,300.24,334.15,301.45,332.59,301.37z"/>
			<path class="st6" d="M342.77,298.74L342.77,298.74c-1.07-0.06-1.89-0.97-1.84-2.04l0.98-18.83c0.06-1.07,0.97-1.89,2.04-1.84l0,0
				c1.07,0.06,1.89,0.97,1.84,2.04l-0.98,18.83C344.75,297.97,343.83,298.8,342.77,298.74z"/>
			<path class="st6" d="M433.83,251.16L433.83,251.16c-1.56-0.08-2.77-1.43-2.69-2.99l0.89-17.03c0.08-1.56,1.43-2.77,2.99-2.69l0,0
				c1.56,0.08,2.77,1.43,2.69,2.99l-0.89,17.03C436.73,250.03,435.39,251.24,433.83,251.16z"/>
			<path class="st6" d="M444.01,248.53L444.01,248.53c-1.07-0.06-1.89-0.97-1.84-2.04l0.98-18.83c0.06-1.07,0.97-1.89,2.04-1.84l0,0
				c1.07,0.06,1.89,0.97,1.84,2.04l-0.98,18.83C445.99,247.76,445.07,248.59,444.01,248.53z"/>
		</g>
	</g>
	<g>
		<path class="st16" d="M687.76,395.39c-45.38,26.2-119.17,26.06-164.83-0.3c-45.66-26.36-45.89-68.97-0.52-95.17
			c45.38-26.2,119.17-26.06,164.83,0.3l-82.16,47.43L687.76,395.39z"/>
		<path class="st17" d="M687.76,395.38C687.76,395.38,687.76,395.38,687.76,395.38L687.76,395.38l-0.52-17.14l-25.08,2.36
			l-57.08-32.95l-0.15,0.08c1.32,9.83,5.95,34.17,9.14,50.6l0.78,16.42l2.41-0.12C644.06,413.58,668.29,406.62,687.76,395.38
			L687.76,395.38L687.76,395.38z"/>
		<path class="st13" d="M687.5,359.15c0,0,45.71-23.76,33.88-63.64c-11.83-39.88-33.88,49.64-33.88,49.64V359.15z"/>
		<path class="st18" d="M522.92,395.09c-45.66-26.36-45.89-68.97-0.52-95.17l82.68,47.73L522.92,395.09z"/>
		<path class="st19" d="M687.24,300.22c-45.66-26.36-119.46-26.5-164.83-0.3l82.68,47.73L687.24,300.22z"/>
		<path class="st18" d="M604.93,347.74l0.15-0.08l-82.68-47.73c-11.27,6.5-28.16,20.34-33.88,30.46v16.18
			C526.17,348.32,578.14,346.54,604.93,347.74z"/>
		<path class="st11" d="M687.76,378.94c-45.38,26.2-119.17,26.06-164.83-0.3c-45.66-26.36-45.89-68.97-0.52-95.17
			c45.38-26.2,119.17-26.06,164.83,0.3l-82.16,47.43L687.76,378.94z"/>
		<path class="st4" d="M522.92,378.64c-45.66-26.36-45.89-68.97-0.52-95.17l82.68,47.73L522.92,378.64z"/>
		<path class="st20" d="M687.24,283.77c-45.66-26.36-119.46-26.5-164.83-0.3l82.68,47.73L687.24,283.77z"/>
		<path class="st14" d="M686.98,249.97c45.66,26.36,45.89,68.97,0.52,95.17l-82.68-47.73L686.98,249.97z"/>
		<path class="st21" d="M604.93,331.29l0.15-0.08l-82.68-47.73c-20.49,11.83-31.68,27.01-33.58,42.52
			C526.47,327.76,578.14,330.09,604.93,331.29z"/>
		<path class="st6" d="M604.93,331.29l0.15-0.08l82.68,47.73c-20.49,11.83-46.78,18.29-73.65,19.39
			C611.04,376.59,607.01,346.76,604.93,331.29z"/>
		<polygon class="st13" points="604.82,297.41 604.82,309.29 687.5,359.15 687.5,345.14 		"/>
		<path class="st7" d="M522.92,395.09l0-16.45c6.33,3.69,13.1,6.81,20.29,9.39L522.92,395.09z"/>
	</g>
	<g>
		<polygon class="st21" points="891.14,436.49 912.22,424.33 808.65,364.53 787.56,376.71 		"/>
		<polygon class="st21" points="960.28,452.38 926.34,432.65 905.27,444.82 939.32,464.48 		"/>
		<polygon class="st11" points="774.94,408.14 753.55,395.79 774.8,383.52 796.19,395.87 		"/>
		<polygon class="st11" points="741.14,427.7 719.75,415.35 741,403.08 762.39,415.43 		"/>
		<polygon class="st11" points="708.01,446.98 686.62,434.63 707.87,422.36 729.26,434.71 		"/>
		<polygon class="st11" points="672.9,467.6 651.51,455.25 672.76,442.98 694.15,455.33 		"/>
		<g>
			<g>
				<polygon class="st6" points="917.29,477.62 795.86,407.51 785.84,413.29 907.28,483.4 				"/>
			</g>
		</g>
		<g>
			<polygon class="st6" points="884.56,497.81 763.13,427.7 753.11,433.48 874.54,503.59 			"/>
		</g>
		<g>
			<g>
				<polygon class="st6" points="849.89,517.09 728.46,446.98 718.44,452.76 839.87,522.87 				"/>
			</g>
		</g>
		<g>
			<polygon class="st6" points="817.18,540.64 695.75,470.53 685.73,476.31 807.17,546.42 			"/>
		</g>
	</g>
	<g>
		<g>
			<g>
				
					<ellipse transform="matrix(5.421482e-03 -1 1 5.421482e-03 -112.6264 1438.6647)" class="st1" cx="666.93" cy="775.95" rx="26.23" ry="45.43"/>
				<path class="st2" d="M655.13,757.07l-19.45,3.97l-2.62,6.75c-0.63,4.84-0.59,7.41,2.62,9.97c2.7,2.15,8.2,0.49,11.08-0.85
					l12.49-7.51c9.26-5.1,8.56-8.88,7.56-12.01l0,0C665.33,753.9,661.05,754.7,655.13,757.07z"/>
				<path class="st2" d="M696.44,780.8l-18.81-6.36l-5.66,4.52c-2.98,3.87-4.24,6.11-2.75,9.93c1.25,3.21,6.84,4.55,10,4.84
					l14.58-0.21c10.57,0.25,11.87-3.37,12.58-6.57l0,0C706.85,783.19,702.74,781.73,696.44,780.8z"/>
				<polygon class="st11" points="726.62,614.75 681.88,588.82 708.21,511.82 752.95,537.75 				"/>
				<path class="st6" d="M655.13,755.26l-19.45,3.97l-2.62,6.75c-0.63,4.84-0.59,7.41,2.62,9.97c2.7,2.15,8.2,0.49,11.08-0.85
					l12.49-7.51c9.26-5.1,8.56-8.88,7.56-12.01l0,0C665.33,752.08,661.05,752.89,655.13,755.26z"/>
				<path class="st6" d="M696.44,779.22l-18.81-6.36l-5.66,4.52c-2.98,3.87-4.24,6.11-2.75,9.93c1.25,3.21,6.84,4.55,10,4.84
					l14.58-0.21c10.57,0.25,11.87-3.37,12.58-6.57l0,0C706.85,781.6,702.74,780.15,696.44,779.22z"/>
				<g>
					<path class="st22" d="M630.04,538.15c-10.61,16.08-15.29,36.6-19.49,55.17c-0.9,4-1.25,6.39-0.19,10.31
						c3.54,13.05,7.56,25.24,9.08,38.84c0.77,6.86,11.62,6.93,10.84,0c-1.42-12.63-3.85-25.08-7.87-37.16
						c-0.76-2.28-1.59-4.52-2.45-6.76c0.79,2.05-0.27,3.56,0.15,1.73c0.26-1.14,0.49-2.29,0.75-3.44c4-17.89,8.33-37.74,18.54-53.21
						C643.25,537.78,633.87,532.34,630.04,538.15L630.04,538.15z"/>
				</g>
				<path class="st20" d="M626.97,542.41c-7.17,12.5-12.37,33.63-17.09,50.74c-1.79,4.72-0.66,9,2.33,8.81l9.98,1.38
					c2.46-0.16,7.15-5.48,8.3-9.43l12.66-43.51c2.06-7.08,0.54-13.17-3.52-14.08l-0.92-0.14C638,533.58,632.38,533.55,626.97,542.41
					z"/>
				<path class="st2" d="M660.51,621.66l-50.09,28.92c-2.45,1.42-5.52-0.35-5.52-3.19v-34.88c0-1.32,0.7-2.53,1.84-3.19l50.09-28.92
					c2.45-1.42,5.52,0.35,5.52,3.19l0,34.88C662.35,619.79,661.65,621,660.51,621.66z"/>
				
					<ellipse transform="matrix(0.5047 -0.8633 0.8633 0.5047 -216.7037 853.2773)" class="st6" cx="635.26" cy="615.49" rx="9" ry="5.19"/>
				<path class="st22" d="M633.41,644.14l-3.64,1.65c-2.8,1.27-6.13,0.01-7.4-2.79l0,0c-1.27-2.8-0.01-6.13,2.79-7.4l3.64-1.65
					c2.8-1.27,6.13-0.01,7.4,2.79l0,0C637.46,639.54,636.21,642.87,633.41,644.14z"/>
				<path class="st23" d="M675.64,503.05l0.08,2.05c0,0,0.27,6.18-5.81,2.98c-6.08-3.19-5.89-10.9-5.89-10.9
					S668.64,496.64,675.64,503.05z"/>
				<path class="st24" d="M669.86,508.26c7.93,4.12,7.65-3.09,7.65-3.09l0.06,0.03l-0.23-2.45c-8.84-7.6-14.47-7.24-14.47-7.24
					S661.94,504.14,669.86,508.26z M664.33,497.47c0,0,4.51-0.24,11.28,5.66l0.06,1.77c0,0,0.21,5.35-5.69,2.29
					C664.07,504.12,664.33,497.47,664.33,497.47z"/>
				<polygon class="st24" points="680.48,506.55 675.76,504.4 675.51,501.73 680.22,503.89 				"/>
				<path class="st24" d="M663.26,497.57l-0.83-0.38c-0.46-0.21-0.87-0.84-0.92-1.42l0,0c-0.06-0.58,0.27-0.87,0.72-0.67l0.83,0.38
					c0.46,0.21,0.87,0.84,0.92,1.42l0,0C664.04,497.48,663.71,497.77,663.26,497.57z"/>
				<g>
					<g>
						<g>
							<path class="st2" d="M682.07,508.69L682.07,508.69c-0.2-0.23-0.26-0.53-0.14-0.67l1.41-1.55c0.12-0.13,0.38-0.05,0.57,0.18v0
								c0.2,0.23,0.26,0.53,0.14,0.67l-1.41,1.55C682.53,509,682.27,508.92,682.07,508.69z"/>
						</g>
					</g>
				</g>
				<path class="st25" d="M665.22,500.66L665.22,500.66c-0.2-0.23-0.26-0.53-0.14-0.67l1.41-1.55c0.12-0.13,0.38-0.05,0.57,0.18l0,0
					c0.2,0.23,0.26,0.53,0.14,0.67l-1.41,1.55C665.67,500.98,665.42,500.9,665.22,500.66z"/>
				<g>
					<g>
						<path class="st2" d="M663.44,660.28c7.21,21.15,7.88,43.89,7.2,66.03c-0.51,16.5-3.11,33.14-2.7,49.64
							c0.27,10.82,17.12,10.87,16.85,0c-0.42-16.96,2.28-34.05,2.74-51.01c0.63-23.08-0.33-47.11-7.84-69.14
							C676.21,645.59,659.93,649.97,663.44,660.28L663.44,660.28z"/>
					</g>
				</g>
				<g>
					<g>
						<path class="st2" d="M629.54,641.29c3.78,13.73,5.49,27.9,6.86,42.05c0.81,8.36,1.8,16.33,0.92,24.67
							c-1.77,16.77-4.89,33.87-4.78,50.77c0.07,10.84,16.92,10.86,16.85,0c-0.12-17.15,3.09-34.49,4.86-51.52
							c0.89-8.58-0.31-16.96-1.16-25.54c-1.49-15.07-3.28-30.28-7.31-44.91C642.92,626.37,626.66,630.8,629.54,641.29L629.54,641.29
							z"/>
					</g>
				</g>
				<path class="st2" d="M643.35,663.57L643.35,663.57c1.56,1.74-5.13-6.74-3.13-5.53c4.17,2.52,27.56,18.41,32.43,18.49
					c5.88,0.1,2.45-5.59,6.83-9.51c4.15-3.73,5.13-9.78,5.54-15.35c0.11-1.54,0.19-3.14-0.43-4.56c-0.66-1.53-2.04-2.61-3.36-3.62
					c-10.39-7.87-30.83-27.33-45.35-21.11C619.1,629.58,635.9,655.22,643.35,663.57z"/>
				<path class="st22" d="M654.91,538.39l4.41-19.64l11.98,8.06l-3.61,17.88C667.33,547.6,654.04,545.06,654.91,538.39z"/>
				<path class="st22" d="M662.18,490.13c0,0-12.01-8.36-12.12,11.96c-0.08,14.14,8.51,26.39,20.1,31.91
					c7.22,3.44,16.05-0.97,16.45-8c1.72-10.27,1.75-19.87-1.62-28.13c0.48-8.49-5.36-5.47-15.46-6.02L662.18,490.13z"/>
				<path class="st2" d="M655.31,529.57c0,0-13.89-5.16-12.57-24.7c1.43-21.14,20.87-19.32,31.68-20.36
					c4.79-0.46,8.11-1.15,13.01,3.22c4.46,3.98,0.29,12.91-6.1,13.49c-2.53,0.23-1.37,7.06-1.89,9.4c-0.91,4.17-3.5,6.2-4.46,10.24
					c-0.91,3.82-6.54,9.81-10.2,10.23C658.26,531.85,655.31,529.57,655.31,529.57z"/>
				<path class="st11" d="M685.73,616.72c0.02-0.82,0.04-1.63,0.06-2.44c0.04-1.62,0.1-3.22,0.16-4.81c0.09-2.38,0.2-4.74,0.31-7.09
					c0.08-1.56,0.15-3.12,0.23-4.68c0.36-7.05,0.74-14.07,0.92-21.47l2.1,0.59c0,0,2.99-20.04-7.28-26.07
					c-5.53-3.25-14.12-8.45-20.86-12.55c-9.91-6.03-23.11-8.29-30.21,0.87c-1.25,1.62-1.93,2.99-2.29,4.4l0,0c0,0,0,0,0,0.01
					c-0.32,1.25-0.38,2.55-0.36,4.1c-2.68,32.07-3.27,84.42-0.09,85.65l0.01,0c0.13,1.34,1,2.6,2.66,3.55
					c1.99,2.44,4.33,4.63,6.93,6.62h0l0,0c0.25,0.19,0.52,0.38,0.78,0.57c0.34,0.25,0.68,0.5,1.03,0.75c0.3,0.21,0.6,0.41,0.9,0.62
					c0.33,0.22,0.67,0.45,1.01,0.67c0.3,0.19,0.6,0.39,0.91,0.58c0.49,0.3,0.98,0.6,1.48,0.89c0.39,0.23,0.79,0.46,1.19,0.68
					c0.39,0.22,0.77,0.43,1.17,0.65c0.33,0.18,0.67,0.36,1,0.53c0.38,0.2,0.77,0.4,1.16,0.59c0.32,0.16,0.65,0.33,0.98,0.49
					c0.56,0.27,1.12,0.54,1.69,0.81c0.37,0.17,0.74,0.35,1.12,0.52c0.48,0.22,0.96,0.44,1.45,0.65c0.32,0.14,0.65,0.29,0.98,0.43
					c0.46,0.2,0.92,0.4,1.39,0.59c0.31,0.13,0.61,0.26,0.92,0.39c0.69,0.29,1.38,0.57,2.08,0.85c0.21,0.08,0.42,0.17,0.63,0.25
					c0.64,0.25,1.28,0.5,1.92,0.75c0.28,0.11,0.56,0.22,0.85,0.32c0.56,0.21,1.12,0.43,1.68,0.64c0.26,0.1,0.51,0.19,0.77,0.29
					c0.8,0.3,1.59,0.59,2.4,0.88c3.98,2.3,11,2.01,15.6-0.65l0,0c0.31-0.18,0.59-0.36,0.86-0.55c0.09-0.06,0.17-0.13,0.25-0.19
					c0.17-0.13,0.35-0.26,0.5-0.39c0.09-0.08,0.17-0.15,0.25-0.23c0.14-0.12,0.27-0.25,0.39-0.38c0.08-0.08,0.15-0.17,0.22-0.25
					c0.11-0.13,0.21-0.25,0.31-0.38c0.06-0.09,0.12-0.17,0.18-0.26c0.09-0.13,0.17-0.26,0.24-0.4c0.05-0.08,0.09-0.17,0.13-0.25
					c0.07-0.14,0.12-0.28,0.18-0.42c0.03-0.08,0.06-0.16,0.09-0.24c0.05-0.16,0.08-0.31,0.11-0.47c0.01-0.06,0.03-0.13,0.04-0.19
					c0.03-0.22,0.04-0.43,0.04-0.65l0.16,0.05c-0.2-2.04-0.38-4.04-0.53-5.99c-0.53-6.84-0.77-13.19-0.83-19.21
					c-0.02-1.72-0.02-3.42-0.01-5.09C685.68,620,685.7,618.35,685.73,616.72z"/>
				<path class="st26" d="M675.45,546.7c-13.45-2.02-22.54,6.43-25.75-12.94l0,0c1.96-1.22,4.49-0.63,5.81,1.27
					c2.31,3.33,7.22,5.44,12.64,4.78c1.62-0.2,3.22,0.55,4.1,1.92L675.45,546.7z"/>
				<g>
					<path class="st22" d="M677.67,564.23c0.92,11.21,2.7,21.47,7.39,31.75c3.37,7.39,6.83,17.97,14.12,22.63
						c16.47,10.52,34.02-16.42,41.8-26.68c4.22-5.56-5.19-10.97-9.36-5.47c-4.41,5.81-20.68,31.25-29.06,20.28
						c-8.95-11.72-12.88-28.2-14.04-42.5C687.95,557.32,677.1,557.26,677.67,564.23L677.67,564.23z"/>
				</g>
				<path class="st20" d="M672.22,564.09c3.28,27.73,12.02,45.36,24.13,54.33c6.37,3.53,12.33-6.52,9.89-12.59
					c-12.06-10.72-16.29-27.45-17.44-46.54c-1.58-3.87-6.06-5.97-10.36-4.85l0,0C673.95,555.62,671.21,559.87,672.22,564.09z"/>
				<path class="st22" d="M678.24,516.77c0.29,3.34-1.42,6.22-3.82,6.43c-0.26,0.02-0.52,0.01-0.78-0.03
					c-2.07-0.33-3.83-2.68-4.08-5.65c-0.29-3.34,1.42-6.22,3.82-6.43C675.78,510.88,677.95,513.43,678.24,516.77z"/>
			</g>
			<g>
				<polygon class="st27" points="703.3,575.62 693.95,569.79 699.39,553.05 708.73,558.89 				"/>
				<polygon class="st6" points="714.76,582.77 705.41,576.94 708.96,566 718.31,571.83 				"/>
				<polygon class="st14" points="726.57,590.15 717.22,584.31 724.34,562.38 733.69,568.21 				"/>
				<path class="st2" d="M736.96,549.15l-4.71-3.02c-0.02-0.01-0.03-0.03-0.04-0.04l-23.05-14.78c-0.75-0.48-1.72-0.21-2.15,0.61
					c-0.43,0.82-0.16,1.88,0.6,2.37l4.71,3.02c0.02,0.01,0.03,0.02,0.04,0.04l23.05,14.78c0.75,0.48,1.72,0.21,2.15-0.61
					C737.99,550.7,737.72,549.64,736.96,549.15z"/>
				<path class="st6" d="M729.04,554.24c0.15-0.57-0.02-1.09-0.47-1.38c-3.82-2.45-21.67-13.9-21.67-13.9
					c-0.75-0.48-1.72-0.21-2.15,0.61c-0.43,0.82-0.16,1.88,0.6,2.37l4.71,3.02c0.02,0.01,0.03,0.02,0.04,0.04l16.34,10.48
					C727.3,556.02,728.75,555.33,729.04,554.24L729.04,554.24z"/>
				<path class="st6" d="M712.52,552.83c0.08-0.45-0.08-0.85-0.43-1.07c-4.15-2.66-7.54-4.84-7.54-4.84
					c-0.75-0.48-1.72-0.21-2.15,0.61c-0.43,0.82-0.16,1.88,0.6,2.37l4.71,3.02c0.02,0.01,0.03,0.02,0.04,0.04l2.79,1.79
					c0.6,0.38,1.64-0.15,1.78-0.91L712.52,552.83z"/>
			</g>
		</g>
		<path class="st28" d="M688.8,785.72c0,0,2.7-4.18,0.44-7.23"/>
		<path class="st28" d="M695.28,786.11c0,0,2.7-4.18,0.44-7.23"/>
		<path class="st28" d="M655.21,761.58c0,0-1.37-4.79-5.15-5.09"/>
		<path class="st28" d="M659.72,759.54c0,0-1.37-4.79-5.15-5.09"/>
	</g>
	<ellipse class="st1" cx="529.42" cy="651.01" rx="52.64" ry="29.78"/>
	<g>
		<g>
			<path class="st29" d="M573.31,633.45c0.37,2.08-0.7,10.82-1.73,13.06c-2.05,7.12-8.48,13.87-19.07,18.83
				c-23.24,10.89-57.69,9.06-76.93-4.09c-8.97-6.13-13.05-13.63-12.5-21c-0.09-0.69,0.62-9.83,0.62-9.83
				c0.83-2.56,2.23-5.06,4.19-7.45c3.27-4.7,8.61-9.02,15.97-12.47c23.24-10.89,57.69-9.06,76.93,4.09
				C568.9,620.12,573,626.78,573.31,633.45z"/>
			<ellipse class="st6" cx="518.25" cy="633.5" rx="54.64" ry="30.91"/>
			<ellipse class="st14" cx="518.25" cy="631.81" rx="54.64" ry="30.91"/>
		</g>
	</g>
	<ellipse class="st1" cx="428.95" cy="700.21" rx="52.64" ry="29.78"/>
	<g>
		<g>
			<path class="st29" d="M573.31,618.83c0.37,2.08-0.7,10.82-1.73,13.06c-2.05,7.12-8.48,13.87-19.07,18.83
				c-23.24,10.89-57.69,9.06-76.93-4.09c-8.97-6.13-13.05-13.63-12.5-21c-0.09-0.69,0.62-9.83,0.62-9.83
				c0.83-2.56,2.23-5.06,4.19-7.45c3.27-4.7,8.61-9.02,15.97-12.47c23.24-10.89,57.69-9.06,76.93,4.09
				C568.9,605.5,573,612.16,573.31,618.83z"/>
			<ellipse class="st6" cx="518.25" cy="618.88" rx="54.64" ry="30.91"/>
			<ellipse class="st14" cx="518.25" cy="617.2" rx="54.64" ry="30.91"/>
		</g>
	</g>
	<g>
		<g>
			<path class="st29" d="M573.31,601.45c0.37,2.08-0.7,10.82-1.73,13.06c-2.05,7.12-8.48,13.87-19.07,18.83
				c-23.24,10.89-57.69,9.06-76.93-4.09c-8.97-6.13-13.05-13.63-12.5-21c-0.09-0.69,0.62-9.83,0.62-9.83
				c0.83-2.56,2.23-5.06,4.19-7.45c3.27-4.7,8.61-9.02,15.97-12.47c23.24-10.89,57.69-9.06,76.93,4.09
				C568.9,588.12,573,594.78,573.31,601.45z"/>
			<ellipse class="st6" cx="518.25" cy="601.5" rx="54.64" ry="30.91"/>
			<ellipse class="st14" cx="518.25" cy="599.81" rx="54.64" ry="30.91"/>
			<ellipse class="st30" cx="518.21" cy="599" rx="38.19" ry="21.61"/>
			<ellipse class="st31" cx="518.36" cy="599.88" rx="47.61" ry="26.94"/>
		</g>
		<path class="st32" d="M493.85,585.01c16.25-7.61,40.33-6.33,53.78,2.86c5.36,3.66,8.22,8.03,8.7,12.44
			c0.57-5.28-2.26-10.69-8.7-15.09c-13.45-9.19-37.53-10.47-53.78-2.86c-9.77,4.58-14.49,11.33-13.77,17.98
			C480.71,594.59,485.38,588.98,493.85,585.01z"/>
		<path class="st29" d="M541.66,586.02l-8.74,2.36l-10.35-1.58l-5.96,1.58l-4.37,0.72l-0.06,5.03c-0.02,0.23-0.02,0.45-0.01,0.68
			l0,0.01l0,0c0.14,2.43,1.95,5.01,2.64,7.08l-3.68,0.73l-6.14-1.56l1.67,2.11l8.41-0.04c0.04,0.86-0.3,1.57-1.31,2.07
			c-1.73,0.85-3.46,0.96-5.31,0.23l-1.79-2.27l-1.65,0.01c-1.24-1.27-1.91-2.78-2.26-4.66l-3.26,0.19l-4.71-4.3V599
			c0.02,1.48,0.7,3.06,1.74,4.51l-2.37,0.76v4.57l4.53,3.02l5.23-2.59c5.91,2.66,12.11,2.46,16.93,0.07
			c2.62-1.29,3.57-2.83,3.68-4.43l0,0v-0.02c0.01-0.2,0.01-0.39,0-0.59v-3.97l-1.25,0.14c-1.36-2.73-3.06-5.13-0.78-6.26
			c2.26-1.12,4.43-0.78,6.67,0.71c1.96,1.31,2.55,2.69,2.57,4.63l7.68,0.21c0.06-0.6,0.07-1.19,0-1.79v-2.79l-1.2-2.91l3.44-1.7
			V586.02z"/>
		<path class="st6" d="M499.18,602.66c-2.4-2.01-4.36-4.83-4.39-7.36l7.96-0.47c0.47,2.53,1.52,4.4,3.76,5.89
			c2.61,1.74,4.94,1.95,7.25,0.8c5.18-2.56-7.25-10.72,1.8-15.2c4.93-2.44,11.05-2.33,16.39,0.12l5.18-2.56l4.53,3.02l-5.08,2.51
			c2.53,2.21,3.07,4.44,2.83,6.67l-7.68-0.21c-0.02-1.94-0.61-3.33-2.57-4.63c-2.24-1.49-4.41-1.83-6.67-0.71
			c-4.77,2.36,7.95,10.37-1.65,15.12c-4.83,2.39-11.02,2.58-16.93-0.07l-5.23,2.59l-4.53-3.02L499.18,602.66z"/>
		<path class="st14" d="M499.18,601.79c-2.4-2.01-4.36-4.83-4.39-7.36l7.96-0.47c0.47,2.53,1.52,4.4,3.76,5.89
			c2.61,1.74,4.94,1.95,7.25,0.8c5.18-2.56-7.25-10.72,1.8-15.2c4.93-2.44,11.05-2.33,16.39,0.12l5.18-2.56l4.53,3.02l-5.08,2.51
			c2.53,2.21,3.07,4.44,2.83,6.67l-7.68-0.21c-0.02-1.94-0.61-3.33-2.57-4.63c-2.24-1.49-4.41-1.83-6.67-0.71
			c-4.77,2.36,7.95,10.37-1.65,15.12c-4.83,2.39-11.02,2.58-16.93-0.07l-5.23,2.59l-4.53-3.02L499.18,601.79z"/>
	</g>
	<g>
		<g>
			<path class="st29" d="M472.64,680.63c0.37,2.08-0.7,10.82-1.73,13.06c-2.05,7.12-8.48,13.87-19.07,18.83
				c-23.24,10.89-57.69,9.06-76.93-4.09c-8.97-6.13-13.05-13.63-12.5-21c-0.09-0.69,0.62-9.83,0.62-9.83
				c0.83-2.56,2.23-5.06,4.19-7.45c3.27-4.7,8.61-9.02,15.97-12.47c23.24-10.89,57.69-9.06,76.93,4.09
				C468.23,667.3,472.33,673.96,472.64,680.63z"/>
			<ellipse class="st6" cx="417.57" cy="680.68" rx="54.64" ry="30.91"/>
			<ellipse class="st14" cx="417.57" cy="679" rx="54.64" ry="30.91"/>
			<ellipse class="st30" cx="417.53" cy="678.19" rx="38.19" ry="21.61"/>
			<ellipse class="st31" cx="417.69" cy="679.06" rx="47.61" ry="26.94"/>
		</g>
		<path class="st32" d="M393.18,664.19c16.25-7.61,40.33-6.33,53.78,2.86c5.36,3.66,8.22,8.03,8.7,12.44
			c0.57-5.28-2.26-10.69-8.7-15.09c-13.45-9.19-37.53-10.47-53.78-2.86c-9.77,4.58-14.49,11.33-13.77,17.98
			C380.03,673.77,384.7,668.16,393.18,664.19z"/>
		<path class="st29" d="M440.99,665.21l-8.74,2.36l-10.35-1.58l-5.96,1.58l-4.37,0.72l-0.06,5.03c-0.02,0.23-0.02,0.45-0.01,0.68
			l0,0.01l0,0c0.14,2.43,1.95,5.01,2.64,7.08l-3.68,0.73l-6.14-1.56l1.67,2.11l8.41-0.04c0.04,0.86-0.3,1.57-1.31,2.07
			c-1.73,0.85-3.46,0.96-5.31,0.23l-1.79-2.27l-1.65,0.01c-1.24-1.27-1.91-2.78-2.26-4.66l-3.26,0.19l-4.71-4.3v4.57
			c0.02,1.48,0.7,3.06,1.74,4.51l-2.37,0.76v4.57l4.53,3.02l5.23-2.59c5.91,2.66,12.11,2.46,16.93,0.07
			c2.62-1.29,3.57-2.83,3.68-4.43l0,0v-0.02c0.01-0.2,0.01-0.39,0-0.59v-3.97l-1.25,0.14c-1.36-2.73-3.06-5.13-0.78-6.26
			c2.26-1.12,4.43-0.78,6.67,0.71c1.96,1.31,2.55,2.69,2.58,4.63l7.68,0.21c0.06-0.6,0.07-1.19,0-1.79v-2.79l-1.2-2.91l3.44-1.7
			V665.21z"/>
		<path class="st6" d="M398.51,681.84c-2.4-2.01-4.36-4.83-4.39-7.36l7.96-0.47c0.47,2.53,1.52,4.4,3.76,5.89
			c2.61,1.74,4.94,1.95,7.25,0.8c5.18-2.56-7.25-10.72,1.8-15.2c4.93-2.44,11.05-2.33,16.39,0.12l5.18-2.56l4.53,3.02l-5.08,2.51
			c2.53,2.21,3.07,4.44,2.83,6.67l-7.68-0.21c-0.02-1.94-0.61-3.33-2.58-4.63c-2.24-1.49-4.41-1.83-6.67-0.71
			c-4.77,2.36,7.95,10.37-1.65,15.12c-4.83,2.39-11.02,2.58-16.93-0.07l-5.23,2.59l-4.53-3.02L398.51,681.84z"/>
		<path class="st14" d="M398.51,680.97c-2.4-2.01-4.36-4.83-4.39-7.36l7.96-0.47c0.47,2.53,1.52,4.4,3.76,5.89
			c2.61,1.74,4.94,1.95,7.25,0.8c5.18-2.56-7.25-10.72,1.8-15.2c4.93-2.44,11.05-2.33,16.39,0.12l5.18-2.56l4.53,3.02l-5.08,2.51
			c2.53,2.21,3.07,4.44,2.83,6.67l-7.68-0.21c-0.02-1.94-0.61-3.33-2.58-4.63c-2.24-1.49-4.41-1.83-6.67-0.71
			c-4.77,2.36,7.95,10.37-1.65,15.12c-4.83,2.39-11.02,2.58-16.93-0.07l-5.23,2.59l-4.53-3.02L398.51,680.97z"/>
	</g>
</g>
</svg>
